<?xml version="1.0" standalone="no"?>
<!DOCTYPE svg PUBLIC "-//W3C//DTD SVG 20010904//EN"
 "http://www.w3.org/TR/2001/REC-SVG-20010904/DTD/svg10.dtd">
<svg version="1.0" xmlns="http://www.w3.org/2000/svg"
 width="1000.000000pt" height="667.000000pt" viewBox="0 0 1000.000000 667.000000"
 preserveAspectRatio="xMidYMid meet">
<metadata>
Created by potrace 1.16, written by Peter Selinger 2001-2019
</metadata>
<g transform="translate(0.000000,667.000000) scale(0.100000,-0.100000)"
fill="#000000" stroke="none">
<path d="M0 5143 c0 -1131 3 -1530 12 -1540 8 -10 8 -17 0 -25 -19 -19 -16
-244 2 -251 9 -3 21 4 30 19 9 13 12 24 7 24 -5 0 -12 19 -16 41 -5 31 -2 51
11 80 11 21 24 37 29 35 15 -5 139 18 204 39 32 10 70 15 90 12 42 -7 133 14
139 31 2 7 -3 12 -12 12 -9 0 -16 4 -16 10 0 5 -15 12 -32 15 -45 9 -67 27
-78 65 -16 57 20 94 85 86 31 -4 37 -1 50 24 8 16 15 38 15 50 0 11 16 36 35
56 19 19 38 47 41 62 10 37 34 73 46 66 5 -3 8 5 7 18 -3 26 20 116 31 123 4
2 5 48 2 101 -3 61 0 115 8 150 13 53 30 81 30 50 0 -24 69 13 76 42 3 12 10
22 15 22 5 0 4 10 -3 23 -7 12 -14 23 -14 25 -1 2 -39 7 -84 11 -108 11 -124
34 -74 106 36 54 41 94 15 124 -12 13 -21 28 -21 34 0 5 -14 22 -31 38 -16 15
-48 61 -69 101 -22 40 -44 72 -49 71 -6 -2 -24 21 -41 50 -16 29 -38 62 -49
74 -11 12 -36 45 -54 75 -19 29 -51 68 -71 86 -36 33 -40 41 -36 77 2 15 -1
17 -12 7 -20 -16 -58 -4 -58 19 0 11 -4 19 -9 19 -4 0 -14 20 -21 44 -11 41
-10 47 11 77 21 30 23 31 36 13 7 -10 13 -23 13 -30 0 -7 18 -23 40 -35 31
-17 40 -29 38 -45 -4 -30 18 -52 58 -60 25 -4 40 -2 52 9 16 15 19 13 34 -13
13 -23 14 -31 4 -39 -7 -6 -15 -9 -18 -6 -3 3 -10 0 -16 -8 -8 -9 -3 -27 18
-67 17 -30 33 -63 36 -72 8 -22 58 -48 92 -48 24 0 82 51 82 73 0 5 9 20 20
34 11 14 20 38 20 54 0 39 19 76 41 82 10 3 23 16 28 29 10 28 5 124 -10 194
-13 59 1 110 34 120 14 4 17 12 13 29 -3 13 3 39 14 61 l20 39 -6 -42 c-5 -29
-3 -43 5 -43 6 0 11 -6 11 -12 0 -7 18 -24 40 -38 22 -13 40 -27 40 -31 0 -10
-45 -56 -61 -61 -11 -4 -14 -28 -14 -114 0 -102 2 -111 25 -137 49 -55 55
-167 8 -167 -22 0 -33 -25 -41 -95 -5 -34 -4 -45 3 -35 9 13 14 7 11 -12 0 -4
4 -20 10 -35 6 -15 13 -48 14 -72 2 -24 7 -47 12 -50 16 -12 34 -63 28 -85 -2
-11 -2 -15 1 -8 3 6 14 12 24 12 23 0 36 36 20 55 -14 17 -4 73 18 98 8 9 26
17 40 17 17 0 23 4 19 15 -4 8 -2 17 4 21 7 4 5 12 -5 22 -22 25 0 88 36 103
16 6 28 17 28 24 0 8 14 16 30 20 17 4 30 10 30 14 0 5 11 25 25 45 20 30 23
41 14 57 -7 14 -17 19 -29 16 -11 -3 -24 1 -31 9 -8 10 -5 19 17 39 31 29 44
32 44 9 0 -25 39 -13 58 18 16 26 15 29 -9 55 -14 15 -31 41 -37 57 -15 34 -6
93 17 106 13 8 11 9 -12 10 -38 0 -77 27 -70 47 4 11 2 14 -5 9 -7 -4 -12 -20
-12 -37 0 -29 -45 -89 -68 -89 -16 0 -25 39 -12 55 8 10 6 17 -12 29 -28 20
-38 20 -38 1 0 -8 4 -15 8 -15 7 0 7 -20 2 -70 -1 -11 -3 -12 -7 -2 -4 10 -9
9 -24 -4 -11 -9 -22 -14 -26 -11 -10 11 -7 59 7 92 7 17 15 56 17 88 4 46 2
57 -11 57 -8 0 -17 -8 -19 -17 -4 -16 -5 -16 -6 1 -1 12 -6 16 -16 12 -8 -3
-15 -1 -15 4 0 5 -7 16 -16 24 -14 14 -14 18 0 31 22 22 6 59 -27 63 -25 3
-26 1 -22 -30 3 -18 3 -27 -1 -20 -3 6 -12 12 -20 12 -8 0 -14 4 -14 10 0 18
23 59 31 55 4 -3 5 4 2 15 -3 11 -9 20 -14 20 -12 0 -44 33 -51 52 -4 9 -2 20
3 25 5 5 5 38 -2 83 -18 131 -18 141 8 151 32 12 34 60 5 117 -18 34 -32 42
-32 16 0 -10 -5 -12 -12 -7 -7 4 -23 6 -35 5 -44 -6 -131 71 -121 106 2 5 -14
24 -36 41 l-39 31 -238 0 -239 0 0 -1527z m608 1261 c12 -4 22 -11 22 -16 0
-5 11 -21 25 -35 31 -35 40 -75 23 -110 -19 -41 -46 -41 -83 0 -36 39 -52 116
-32 149 13 20 13 20 45 12z"/>
<path d="M8816 6649 c26 -29 90 -59 102 -47 11 11 44 -1 39 -16 -2 -6 16 -31
41 -55 50 -49 63 -44 52 22 -5 22 -6 46 -3 53 6 16 -5 21 -52 25 -24 2 -45 11
-53 21 -10 14 -27 18 -79 18 l-66 0 19 -21z"/>
<path d="M9067 6663 c-12 -12 -7 -23 7 -17 17 6 58 -59 78 -123 9 -29 18 -43
30 -43 10 0 18 7 18 15 0 8 5 15 10 15 13 0 13 66 -1 92 -9 16 -7 23 10 35 12
8 21 18 21 24 0 10 -163 13 -173 2z"/>
<path d="M9386 6653 c-9 -23 -7 -26 14 -20 13 3 20 0 20 -9 0 -8 -9 -14 -20
-14 -13 0 -20 -7 -20 -20 0 -11 -3 -20 -8 -20 -4 0 -13 -13 -20 -30 -9 -20
-21 -30 -35 -30 -19 -1 -19 -3 8 -17 20 -11 30 -12 33 -4 4 12 35 15 45 4 4
-3 2 -12 -4 -20 -9 -9 -8 -17 0 -27 9 -11 9 -15 0 -18 -20 -7 -2 -38 21 -38
11 0 20 -4 20 -10 0 -5 -9 -10 -20 -10 -11 0 -24 -8 -27 -17 -4 -10 -17 -32
-30 -49 -12 -17 -20 -34 -16 -37 3 -4 -3 -7 -15 -7 -12 0 -22 -4 -22 -10 0 -5
7 -10 15 -10 8 0 15 -4 15 -10 0 -5 -9 -10 -20 -10 -15 0 -19 -5 -16 -22 3
-13 5 -28 5 -34 3 -43 71 -2 71 42 0 13 5 26 10 29 8 5 7 11 -1 21 -6 8 -7 14
-2 14 6 0 27 16 48 36 28 26 44 34 60 30 23 -6 71 36 94 82 7 12 18 22 26 22
24 0 17 30 -10 42 -26 12 -36 34 -10 24 9 -3 15 0 15 9 0 16 51 55 72 55 17 0
78 53 78 67 0 6 8 14 17 18 32 12 72 -62 44 -80 -5 -3 -12 -1 -16 5 -9 15 -25
2 -25 -21 0 -12 -10 -23 -27 -30 -22 -8 -24 -12 -13 -19 11 -7 8 -10 -13 -10
-36 0 -26 -17 16 -25 74 -15 120 -51 129 -101 4 -28 -28 -75 -47 -68 -9 4 -22
-6 -36 -30 -23 -39 -22 -39 -139 -36 -74 2 -76 1 -90 -27 -20 -39 -56 -71 -91
-78 -16 -4 -29 -11 -29 -16 0 -5 -11 -15 -25 -21 -14 -6 -25 -17 -25 -23 0
-19 -42 -52 -47 -37 -5 14 -43 16 -43 2 0 -5 -5 -10 -11 -10 -6 0 -8 8 -5 18
5 15 -2 17 -63 17 -38 0 -79 -6 -93 -13 -28 -15 -52 -65 -45 -92 3 -11 0 -18
-7 -17 -6 1 -12 -10 -14 -25 -2 -16 -7 -28 -11 -28 -11 0 -35 -72 -32 -96 1
-11 -7 -44 -18 -71 -11 -28 -19 -69 -18 -90 1 -46 -20 -103 -39 -103 -8 0 -14
-8 -14 -17 0 -10 -11 -38 -25 -62 -14 -23 -25 -50 -25 -58 0 -21 29 -42 58
-43 15 0 22 -6 22 -20 0 -15 -7 -20 -25 -20 -22 0 -24 -3 -15 -19 12 -24 13
-61 1 -61 -8 0 -16 -34 -24 -112 -2 -21 -10 -44 -16 -52 -7 -8 -10 -20 -6 -26
4 -6 2 -17 -5 -25 -7 -9 -8 -15 0 -20 5 -3 10 -1 10 6 0 7 3 10 6 6 7 -6 -10
-39 -19 -38 -35 3 -66 -15 -90 -54 -14 -24 -41 -54 -59 -66 -37 -24 -60 -62
-51 -85 3 -9 -2 -14 -16 -14 -44 0 -54 -63 -16 -104 39 -42 30 -84 -26 -111
-42 -20 -44 -22 -41 -60 2 -22 10 -56 20 -75 12 -26 17 -68 19 -157 2 -111 4
-125 27 -162 15 -22 26 -54 26 -70 0 -16 7 -34 15 -41 8 -7 15 -23 15 -36 0
-12 7 -29 15 -38 8 -8 15 -18 15 -21 0 -4 9 -18 20 -32 11 -14 20 -36 20 -48
0 -29 24 -47 92 -70 46 -14 63 -16 83 -7 14 6 25 8 25 3 0 -5 -7 -11 -15 -15
-9 -3 -15 -18 -15 -40 0 -49 -36 -61 -105 -34 -27 11 -53 24 -56 30 -3 5 -21
8 -40 6 -31 -3 -34 -6 -32 -32 1 -16 6 -32 11 -35 16 -11 21 -51 6 -51 -9 0
-14 -11 -14 -34 0 -44 17 -58 49 -41 16 8 46 11 86 7 45 -3 71 0 97 12 32 15
40 15 93 1 33 -8 91 -15 131 -15 74 0 104 -15 104 -53 0 -9 5 -19 10 -22 16
-10 40 14 40 40 0 15 7 25 21 28 26 7 89 -3 89 -14 0 -5 7 -9 15 -9 8 0 30 -7
49 -16 23 -11 45 -15 70 -10 33 6 36 10 37 44 1 20 3 29 6 20 2 -9 12 -19 21
-21 15 -4 15 -5 0 -6 -41 -2 -13 -20 55 -35 114 -25 234 -38 281 -31 l44 7 -1
186 c-1 118 -6 187 -12 189 -16 5 -34 -95 -28 -150 6 -49 -4 -60 -27 -32 -10
12 -10 24 -2 53 16 52 5 140 -17 138 -24 -2 -19 88 9 148 14 33 18 52 12 58
-19 19 9 47 40 41 l28 -5 0 1132 0 1132 -25 20 c-14 11 -25 26 -25 35 0 8 -10
29 -22 46 -12 17 -17 27 -10 24 6 -4 26 6 44 22 33 29 33 30 36 130 l4 102
-305 -2 c-261 -1 -306 -3 -311 -16z m-88 -1110 c12 -58 13 -113 3 -132 -9 -16
-9 -21 0 -21 6 0 8 -7 5 -16 -4 -11 -1 -14 13 -9 16 5 19 1 17 -22 -1 -31 -23
-63 -43 -63 -15 0 -51 19 -71 38 -7 7 -18 9 -23 6 -19 -11 -7 96 12 109 9 7
22 39 29 72 7 33 17 63 24 67 13 8 28 -5 34 -29z m147 -1493 c14 -16 20 -17
26 -8 7 10 11 10 21 0 6 -6 23 -13 38 -13 23 -2 24 -2 2 -6 -47 -9 -84 -64
-59 -89 24 -24 -7 -76 -48 -80 -45 -5 -65 26 -68 104 -2 39 0 69 5 66 9 -6 36
7 37 19 1 4 1 12 1 17 0 17 26 11 45 -10z"/>
<path d="M1459 6483 c-4 -60 -12 -93 -32 -133 -20 -41 -25 -45 -56 -43 -18 1
-37 7 -42 14 -6 10 -12 9 -28 -5 -12 -11 -21 -23 -21 -28 0 -5 -7 -16 -15 -24
-8 -9 -15 -22 -15 -31 0 -15 3 -15 61 3 29 10 61 -49 64 -119 3 -80 -4 -94
-84 -160 -21 -17 -21 -18 -4 -42 10 -13 23 -25 30 -25 6 0 21 -12 32 -26 24
-30 30 -131 9 -152 -7 -7 -31 -12 -54 -12 l-43 0 1 -41 c0 -32 5 -42 22 -49
24 -9 60 6 50 22 -4 6 1 8 14 4 17 -6 19 -3 15 14 -4 16 -2 19 11 14 13 -5 16
2 16 42 0 87 37 163 79 164 25 1 67 44 75 76 13 55 12 59 -9 56 -11 -2 -34 -6
-50 -9 -22 -3 -35 1 -48 15 -18 19 -17 22 10 73 15 29 43 67 61 85 37 38 41
54 12 54 -11 0 -20 -6 -20 -14 0 -19 -60 -27 -67 -9 -9 23 7 80 27 98 11 10
20 24 20 31 0 7 14 36 30 64 32 54 36 69 20 71 -5 1 -14 2 -18 3 -5 0 -16 9
-26 19 -10 9 -19 17 -22 17 -2 0 -5 -8 -5 -17z"/>
<path d="M8768 5779 c-16 -16 -28 -36 -28 -43 0 -8 -7 -19 -15 -26 -8 -7 -15
-28 -15 -46 0 -23 -5 -34 -15 -34 -12 0 -15 -20 -14 -117 1 -113 9 -153 29
-153 6 0 10 7 10 16 0 14 2 15 17 3 12 -10 15 -10 9 -1 -9 16 25 91 42 92 6 0
12 7 12 16 0 8 -4 12 -10 9 -18 -11 -33 41 -24 82 4 21 8 43 9 48 1 6 5 20 9
33 6 18 17 154 12 151 0 0 -13 -14 -28 -30z"/>
<path d="M2785 5674 c-11 -13 -27 -25 -35 -26 -20 -4 -22 -94 -3 -132 20 -40
19 -113 -3 -137 -33 -36 10 -21 46 16 19 19 40 35 46 35 7 0 25 5 39 12 21 9
25 18 25 53 0 27 7 51 20 68 11 14 20 30 20 36 0 17 -18 13 -29 -6 -15 -28
-55 -2 -82 55 l-24 49 -20 -23z"/>
<path d="M1504 5596 c-4 -9 -27 -17 -62 -22 -31 -4 -61 -12 -67 -18 -16 -17
-35 -64 -35 -86 0 -11 -7 -20 -15 -20 -8 0 -15 -7 -15 -15 0 -26 -31 -78 -66
-113 -19 -18 -34 -40 -34 -49 0 -9 -7 -21 -16 -27 -11 -8 -16 -31 -18 -72 -3
-70 -11 -87 -35 -79 -31 10 -99 -50 -125 -109 -13 -30 -38 -64 -55 -77 -22
-16 -31 -31 -31 -51 0 -15 -4 -28 -10 -28 -15 0 -11 -93 5 -114 23 -30 18 -71
-10 -97 -13 -13 -25 -31 -25 -39 0 -13 -1 -13 -11 0 -8 12 -9 9 -4 -10 3 -14
8 -97 10 -185 3 -88 7 -177 10 -197 7 -47 48 -143 67 -154 8 -5 25 -27 38 -49
13 -22 31 -49 41 -60 33 -37 56 -242 30 -268 -19 -19 -12 -52 19 -82 24 -23
29 -35 25 -56 -5 -23 -1 -29 37 -46 40 -19 44 -19 68 -4 14 8 28 19 31 24 3 5
18 16 34 25 17 11 33 35 44 66 14 42 21 50 46 53 16 2 41 12 57 21 27 16 30
15 84 -14 44 -24 59 -39 68 -65 10 -31 14 -34 46 -31 48 5 57 15 62 73 6 56
20 72 58 64 54 -12 116 -15 128 -7 9 6 15 35 17 76 2 37 8 73 14 80 6 6 8 22
4 34 -4 16 -1 22 7 20 8 -2 16 11 20 29 4 18 12 39 17 45 6 7 16 30 23 52 7
21 15 33 19 27 4 -6 7 23 8 63 2 72 14 137 32 165 7 11 13 10 35 -5 26 -19 47
-75 66 -173 5 -28 24 -71 43 -98 18 -26 39 -70 45 -97 7 -27 21 -60 32 -74 11
-13 20 -39 20 -57 0 -24 7 -37 25 -49 27 -18 61 -21 70 -6 3 6 14 10 24 10 10
0 26 9 37 21 32 35 68 49 101 40 36 -11 58 0 49 24 -10 27 5 112 23 132 27 29
39 73 44 161 3 45 11 89 17 97 15 18 6 45 -14 45 -14 0 -26 29 -26 68 0 13 4
20 10 17 6 -3 10 0 10 9 0 8 -5 16 -11 18 -8 3 -9 10 -1 23 5 11 15 32 21 47
10 25 14 27 61 24 l51 -3 31 65 c16 36 43 79 60 95 50 50 61 73 48 96 -24 45
17 145 64 157 23 5 106 -24 106 -38 0 -5 9 -8 20 -8 11 0 20 -6 20 -13 0 -7
10 -18 21 -25 18 -12 21 -20 15 -58 -6 -49 1 -55 27 -23 16 18 20 42 27 144 0
6 -3 25 -6 43 -4 22 -1 40 11 58 14 22 15 28 2 47 -14 21 -28 72 -32 109 -2
24 -38 51 -123 95 l-73 38 -17 -23 c-16 -20 -23 -22 -77 -16 -49 5 -63 3 -74
-10 -11 -13 -9 -20 14 -47 24 -29 26 -38 20 -81 -5 -36 -3 -55 9 -73 9 -13 16
-37 16 -53 0 -15 6 -34 13 -41 10 -11 10 -14 0 -18 -15 -6 -17 -33 -3 -33 6 0
10 -6 10 -12 -1 -7 -11 0 -24 16 -18 22 -30 27 -47 23 -62 -16 -108 40 -90
110 6 21 11 76 13 123 l3 85 -63 -1 c-43 -1 -66 -6 -75 -16 -7 -9 -18 -17 -26
-20 -16 -5 -43 -72 -45 -113 0 -16 -4 -32 -8 -35 -10 -7 2 -50 13 -50 5 0 9
-6 9 -14 0 -8 7 -16 15 -19 8 -4 18 -21 23 -39 7 -27 5 -36 -11 -50 -33 -29
-57 -7 -57 52 0 51 -9 60 -39 41 -10 -6 -12 -19 -7 -44 5 -26 2 -40 -12 -57
-24 -29 -48 -21 -68 22 -16 36 -36 70 -45 78 -3 3 -11 14 -17 25 -6 12 -23 27
-39 35 -15 8 -38 26 -50 40 -24 27 -27 30 -73 73 -17 16 -30 38 -30 50 0 19 6
22 40 25 29 2 42 -2 46 -13 4 -9 13 -13 23 -10 20 6 106 -48 106 -67 0 -7 12
-19 27 -27 24 -14 28 -14 47 3 12 11 21 27 21 37 0 10 6 24 13 31 6 7 18 25
26 39 7 15 24 33 37 40 13 7 24 16 24 20 0 5 6 6 14 3 7 -3 21 6 30 21 17 25
16 25 -15 32 -28 5 -30 8 -25 36 3 17 3 28 0 24 -4 -4 -13 -2 -21 4 -9 9 -17
8 -27 0 -11 -9 -15 -8 -20 6 -6 15 -11 13 -36 -15 l-29 -33 -38 25 c-21 14
-46 26 -55 26 -10 0 -18 4 -18 10 0 5 -7 7 -16 3 -12 -4 -15 -1 -12 13 2 12
12 19 26 19 12 0 26 5 30 10 4 6 19 16 33 22 20 9 28 20 31 47 7 61 -25 92
-37 36 -4 -16 -18 -39 -32 -49 -15 -12 -22 -25 -17 -32 4 -8 3 -9 -5 -5 -6 4
-14 0 -17 -8 -3 -9 -10 -16 -16 -16 -5 0 -16 -7 -24 -15 -9 -8 -39 -22 -68
-30 -30 -9 -62 -25 -71 -35 -22 -24 -67 -26 -85 -5 -11 13 -9 23 8 59 31 61
29 86 -5 87 -16 1 -31 1 -35 0 -5 0 -8 8 -8 20 0 11 -5 17 -10 14 -6 -4 -8
-11 -5 -16 4 -5 2 -9 -4 -9 -6 0 -18 -14 -26 -30 -15 -30 -57 -55 -83 -51 -16
3 -39 -20 -44 -45 -2 -12 -10 -18 -22 -16 -10 2 -16 -1 -13 -5 3 -5 -3 -14
-14 -21 -17 -11 -19 -9 -19 17 0 17 5 33 10 36 16 10 12 18 -30 65 -22 24 -40
51 -40 60 0 8 -12 23 -28 33 -37 23 -91 62 -124 86 -31 25 -37 26 -44 7z"/>
<path d="M7470 5483 c1 -5 7 -30 14 -58 13 -46 12 -53 -7 -87 -12 -22 -32 -41
-50 -48 -40 -13 -67 -13 -67 2 0 9 -3 9 -12 0 -8 -8 -8 -15 1 -26 7 -8 10 -20
6 -26 -3 -5 1 -10 9 -10 12 0 16 -10 16 -40 0 -22 -4 -40 -10 -40 -5 0 -10 -7
-10 -15 0 -8 -6 -24 -12 -35 -11 -17 -10 -22 2 -30 12 -8 10 -10 -9 -10 -22 0
-23 3 -17 39 9 58 -7 91 -43 91 -20 0 -34 -7 -41 -20 -10 -18 -8 -20 25 -20
37 0 42 -9 29 -57 -5 -17 -14 -23 -33 -23 -15 0 -47 -9 -70 -21 -24 -11 -49
-18 -56 -15 -8 3 -16 0 -18 -7 -5 -16 -37 9 -37 29 0 9 -12 14 -34 14 -31 0
-34 -3 -41 -37 -5 -28 -3 -38 9 -45 9 -5 14 -13 11 -18 -3 -5 -1 -11 5 -15 5
-3 10 -2 10 2 0 5 9 14 20 20 16 11 21 10 30 -7 21 -39 21 -89 0 -131 -12 -22
-27 -42 -35 -46 -22 -8 -18 -41 5 -53 11 -6 28 -29 38 -50 16 -38 19 -40 62
-40 41 -1 43 -2 23 -13 -16 -9 -20 -16 -13 -27 6 -9 5 -17 -3 -22 -6 -4 -8
-10 -4 -14 3 -4 13 -1 21 5 12 10 15 8 18 -11 2 -17 11 -24 31 -26 15 -2 27
-6 28 -10 5 -46 13 -68 25 -75 8 -4 14 -14 14 -21 0 -8 7 -19 15 -26 25 -20
17 -54 -20 -90 -34 -33 -39 -64 -13 -81 5 -3 13 -48 17 -100 12 -128 67 -273
144 -378 10 -13 17 -41 17 -65 0 -59 10 -66 73 -49 72 20 194 10 218 -18 20
-23 57 -25 88 -2 13 9 33 17 45 19 11 1 28 5 36 8 8 3 24 -1 34 -9 16 -12 20
-28 20 -82 l1 -67 59 -29 c70 -33 90 -32 93 6 1 15 16 46 33 67 29 37 30 40
11 40 -12 0 -21 -6 -21 -15 0 -21 -23 -19 -54 6 -22 17 -26 28 -26 73 0 47 3
54 25 64 14 7 36 12 49 12 29 0 63 46 75 101 5 23 15 45 22 49 14 9 4 77 -13
82 -15 5 -13 105 2 123 11 14 82 30 112 26 28 -4 39 57 41 232 2 157 1 167
-21 196 -26 36 -27 52 -6 112 16 43 16 50 0 105 -23 78 -43 124 -55 124 -10 0
-71 85 -71 98 0 4 -11 18 -25 30 -14 13 -29 41 -35 62 -8 30 -19 43 -52 60
-26 13 -50 19 -65 15 -36 -9 -93 4 -87 20 6 15 -54 27 -63 11 -4 -5 -1 -12 5
-14 7 -2 10 -8 7 -12 -3 -5 -3 -27 1 -49 5 -30 11 -41 24 -41 34 0 80 -31 80
-53 -1 -40 12 -87 23 -87 8 0 7 -4 -1 -12 -9 -9 -7 -14 5 -23 15 -11 11 -15
-28 -33 -24 -12 -39 -21 -32 -22 7 0 12 -15 11 -38 0 -36 -2 -38 -26 -34 -43
8 -62 32 -62 78 0 26 6 47 16 55 31 26 -2 155 -45 179 -11 5 -54 10 -95 10
-87 0 -103 13 -80 66 12 29 72 84 92 84 5 0 13 20 16 45 4 25 11 45 17 45 5 0
9 7 9 15 0 17 -13 19 -57 6 -21 -6 -35 -5 -42 2 -8 8 -11 8 -11 -1 0 -7 -9
-12 -20 -12 -11 0 -20 7 -20 15 0 9 -6 12 -17 8 -12 -5 -15 -2 -10 10 4 11 1
17 -8 17 -9 0 -12 -6 -9 -15 4 -8 2 -15 -2 -16 -5 0 -20 -2 -34 -4 -23 -3 -27
3 -44 53 -25 78 -42 102 -71 102 -14 0 -25 -3 -25 -7z m131 -275 c1 -13 2 -30
3 -38 2 -36 41 -99 61 -100 15 0 20 -7 21 -30 1 -17 -3 -30 -7 -30 -5 0 -9
-12 -9 -26 0 -14 4 -23 9 -20 8 5 18 -20 27 -63 1 -8 0 -26 -2 -41 -5 -22 -11
-26 -42 -27 -43 -1 -67 14 -52 31 12 15 1 86 -13 86 -6 0 -8 36 -4 103 3 56 4
96 1 90 -7 -15 -34 -17 -34 -3 0 6 5 10 11 10 7 0 8 14 4 40 -6 33 -4 40 9 40
9 0 17 -9 17 -22z"/>
<path d="M8142 5470 c-18 -4 -34 -9 -35 -11 -1 -2 -8 -14 -14 -26 -11 -18 -10
-24 3 -31 9 -5 14 -13 12 -18 -1 -5 10 -9 25 -9 18 -1 26 3 23 12 -3 7 1 10
10 6 7 -3 14 -11 14 -18 0 -8 8 -11 20 -8 22 6 26 -11 10 -37 -8 -12 -13 -13
-29 -3 -17 11 -23 10 -40 -8 -16 -17 -17 -25 -7 -52 14 -41 74 -97 104 -97 23
0 28 10 12 26 -13 13 12 60 32 56 8 -1 21 5 28 13 10 12 16 13 27 4 25 -21 31
4 19 70 -7 40 -17 66 -26 69 -8 3 -18 11 -22 18 -5 6 -17 10 -28 7 -14 -4 -22
2 -30 21 -10 28 -39 32 -108 16z"/>
<path d="M6860 5345 c-7 -16 -15 -48 -18 -70 -6 -44 -37 -77 -64 -69 -43 13
-8 -89 42 -121 24 -16 60 -24 60 -14 0 5 10 9 23 9 13 0 28 5 35 12 7 7 22 13
35 13 50 0 58 100 8 111 -53 12 -58 15 -69 39 -7 14 -9 41 -6 60 4 27 2 35
-10 35 -8 0 -16 6 -19 13 -3 6 -10 -1 -17 -18z"/>
<path d="M679 5288 c-11 -21 -35 -24 -42 -5 -2 6 -8 8 -13 4 -5 -4 -2 -12 6
-18 16 -10 17 -10 -43 -47 -20 -13 -38 -29 -38 -35 -1 -7 -3 -22 -4 -34 -1
-12 -5 -28 -8 -37 -9 -23 2 -46 22 -46 27 0 92 -72 81 -90 -12 -19 -3 -30 25
-30 30 0 39 22 40 97 1 45 6 67 19 82 13 14 15 21 6 21 -18 0 -6 67 19 100 15
21 16 29 7 42 -15 21 -65 18 -77 -4z"/>
<path d="M5947 5168 c-15 -24 -25 -50 -21 -60 3 -9 1 -26 -5 -36 -7 -14 -5
-21 10 -30 10 -7 19 -20 19 -30 0 -29 13 -39 57 -47 l42 -7 -6 54 -5 53 48 25
c45 23 63 26 57 8 -5 -14 14 -8 27 7 16 19 13 22 -30 30 -19 3 -39 10 -46 15
-6 6 -14 7 -17 4 -3 -4 -20 5 -37 20 -18 14 -36 24 -41 20 -5 -3 -9 0 -9 5 0
22 -16 10 -43 -31z"/>
<path d="M8655 5179 c-11 -4 -36 -8 -56 -8 l-37 -1 5 -47 c2 -27 11 -73 20
-102 12 -40 13 -56 5 -59 -15 -5 -16 -72 -2 -72 6 0 10 5 10 10 0 6 7 10 15
10 8 0 15 7 15 16 0 9 13 33 29 53 15 20 36 51 45 68 15 31 15 35 -1 70 -9 21
-19 45 -22 54 -4 12 -12 14 -26 8z"/>
<path d="M6705 5009 c-4 -12 -12 -18 -21 -15 -11 4 -14 -7 -14 -53 0 -54 -3
-62 -31 -85 -17 -14 -41 -26 -55 -26 -13 0 -24 -4 -24 -9 0 -5 -18 -12 -41
-16 -37 -6 -40 -9 -34 -32 3 -14 2 -22 -2 -20 -4 3 -7 -24 -6 -60 1 -36 -3
-76 -8 -90 -10 -26 -4 -45 9 -28 13 18 51 35 67 29 8 -4 23 0 32 7 13 11 17
11 20 2 3 -7 16 -13 29 -13 13 0 23 -3 22 -7 -1 -5 2 -22 6 -40 5 -22 12 -30
22 -26 8 3 14 0 14 -6 0 -18 27 -13 34 7 13 32 31 62 38 62 5 0 8 6 8 13 0 16
36 47 54 47 36 0 45 -57 18 -120 -20 -48 -71 -100 -98 -100 -15 0 -25 -9 -34
-32 -6 -18 -18 -47 -25 -65 -9 -21 -12 -49 -8 -83 5 -47 4 -52 -16 -57 -21 -5
-22 -9 -17 -92 3 -47 6 -88 7 -91 1 -3 0 -13 0 -23 -2 -18 57 -117 70 -117 5
0 6 -7 3 -15 -4 -8 -2 -15 4 -15 5 0 13 -16 16 -35 4 -20 13 -35 21 -35 8 0
18 -6 22 -14 8 -14 85 -56 102 -56 6 0 22 23 36 50 14 28 30 48 34 45 13 -8
71 50 71 72 0 10 20 50 44 88 52 79 62 134 51 275 -3 47 -7 114 -9 150 -3 64
-33 137 -73 178 -7 7 -13 20 -13 27 0 8 -9 19 -20 25 -11 6 -20 16 -20 23 0
31 -22 35 -47 9 l-25 -27 7 25 c15 54 6 104 -26 132 -16 15 -35 28 -42 30 -15
3 -57 -24 -57 -37 0 -5 -13 -11 -30 -12 -45 -3 -53 41 -25 140 13 47 14 61 4
73 -10 12 -10 17 0 23 9 6 5 13 -13 24 -24 16 -25 16 -31 -4z"/>
<path d="M5910 4800 c0 -5 7 -10 15 -10 8 0 15 -9 15 -20 0 -11 -4 -20 -9 -20
-5 0 -13 -9 -16 -20 -4 -12 -16 -29 -27 -40 -11 -10 -21 -30 -22 -44 0 -14 -4
-27 -8 -27 -5 -1 -12 -2 -17 -3 -23 -3 -30 -27 -32 -116 -3 -92 -2 -96 28
-137 l30 -42 23 25 c15 15 26 20 30 13 5 -6 16 3 29 25 21 33 21 37 7 65 -9
16 -20 32 -25 36 -16 9 -23 88 -12 118 7 17 18 27 31 27 17 0 20 7 20 40 0 27
-5 43 -15 46 -21 8 -19 27 4 41 10 6 21 21 24 32 5 19 1 21 -34 21 -21 0 -39
-4 -39 -10z"/>
<path d="M6160 4735 c0 -8 -6 -12 -12 -10 -9 3 -22 -20 -38 -67 -23 -65 -30
-74 -59 -84 -44 -14 -54 -33 -35 -62 9 -13 14 -33 11 -43 -3 -11 0 -19 8 -19
7 0 15 -6 17 -12 8 -21 -2 -37 -18 -31 -8 3 -14 0 -14 -6 0 -6 -10 -10 -22 -8
-22 2 -23 -1 -20 -48 2 -27 9 -54 15 -58 8 -6 8 -10 2 -13 -6 -2 -9 -20 -7
-40 3 -20 -1 -69 -7 -109 -10 -61 -9 -89 5 -173 16 -99 16 -100 -5 -121 -11
-11 -32 -21 -45 -21 -13 0 -27 -6 -29 -12 -3 -8 -6 -5 -6 6 -1 14 -6 17 -27
12 -23 -6 -25 -5 -18 16 5 13 9 48 9 78 0 30 3 60 7 66 9 13 -4 72 -26 114
-21 43 -20 48 4 20 11 -13 20 -18 20 -12 0 6 -5 14 -11 17 -5 4 -8 19 -5 33 3
17 -2 43 -15 67 l-20 40 5 -40 6 -40 -16 40 c-41 105 -89 163 -180 216 -24 14
-41 29 -37 33 4 4 -1 4 -12 0 -14 -6 -17 -4 -13 7 4 10 -1 15 -12 15 -10 0
-16 -5 -13 -12 2 -6 -3 -14 -12 -17 -14 -6 -14 -10 0 -43 20 -49 19 -54 -14
-51 -18 1 -27 7 -24 15 5 11 -2 14 -23 11 -4 0 -11 5 -16 13 -6 9 -8 8 -6 -7
2 -16 -3 -20 -27 -20 -27 0 -30 3 -27 28 2 21 -3 29 -23 37 -36 14 -37 13 -24
-11 6 -12 7 -19 1 -15 -5 3 -13 -5 -16 -19 -7 -26 -30 -33 -42 -13 -11 17 -12
48 -2 42 4 -3 8 4 8 15 0 11 -5 23 -10 26 -6 4 -8 16 -4 27 5 18 4 19 -17 8
-12 -7 -33 -24 -46 -39 -14 -14 -23 -19 -20 -10 10 31 -8 41 -34 20 -13 -11
-18 -20 -11 -21 6 0 12 5 12 10 0 6 7 10 16 10 13 0 14 -3 5 -13 -6 -8 -7 -18
-3 -22 4 -5 -2 -5 -12 -1 -11 4 -22 2 -26 -4 -4 -6 -24 -13 -45 -16 -42 -5
-50 -9 -50 -27 -1 -7 -6 -11 -12 -10 -6 1 -17 -4 -23 -12 -7 -8 -19 -15 -26
-15 -17 0 -39 -43 -55 -103 -6 -26 -14 -47 -18 -47 -4 0 -7 -10 -8 -22 -1 -11
-11 -51 -22 -87 -50 -166 -52 -275 -5 -257 7 3 16 1 19 -4 12 -19 24 -9 21 18
-3 28 12 72 24 72 4 0 10 9 13 20 7 28 21 25 67 -17 27 -23 37 -39 29 -43 -6
-4 10 -11 37 -15 35 -5 44 -9 33 -17 -11 -7 -11 -11 -1 -15 6 -2 10 -9 6 -14
-3 -5 -1 -9 4 -9 5 0 24 -14 42 -31 29 -29 31 -33 19 -56 -7 -13 -30 -43 -52
-66 -36 -38 -39 -47 -39 -97 0 -50 -1 -53 -14 -36 -8 11 -14 15 -14 9 0 -6 -9
-9 -20 -6 -16 4 -20 0 -21 -18 -1 -18 -2 -20 -6 -6 -3 11 -11 16 -19 13 -18
-7 -77 51 -68 66 4 6 1 9 -7 6 -11 -4 -13 -24 -12 -84 2 -75 23 -162 57 -237
21 -46 37 -110 28 -117 -17 -12 -11 -50 10 -61 22 -12 22 -12 3 -20 -19 -7
-19 -8 2 -8 30 -1 37 -17 11 -25 -22 -5 -21 -6 12 -36 34 -30 34 -32 16 -46
-19 -13 -19 -14 -1 -34 14 -16 15 -22 5 -35 -7 -8 -10 -24 -7 -35 3 -11 1 -20
-5 -20 -5 0 -7 -4 -3 -9 3 -5 -4 -12 -15 -16 -11 -3 -20 -12 -21 -18 -1 -22
-21 38 -34 103 -7 36 -14 56 -14 46 -1 -11 13 -92 29 -180 25 -131 62 -397 56
-402 0 -1 -38 -5 -83 -9 -81 -7 -82 -7 -87 16 -2 13 -16 101 -31 194 -14 94
-33 213 -41 265 -18 113 -20 224 -5 264 6 15 21 36 34 47 18 15 19 18 5 19 -9
0 -23 -7 -31 -15 -8 -8 -17 -11 -21 -8 -3 4 -6 2 -6 -4 0 -6 -7 -13 -14 -16
-10 -4 -13 -1 -9 9 3 9 -1 14 -11 14 -9 0 -19 -7 -23 -15 -3 -9 -21 -22 -40
-30 -19 -8 -52 -29 -74 -46 -35 -27 -39 -29 -39 -11 0 27 -28 51 -39 33 -5 -7
-12 -12 -17 -11 -5 0 -11 -7 -13 -17 -5 -30 -36 -52 -61 -46 -17 5 -21 3 -15
-7 5 -8 4 -11 -2 -7 -15 9 -74 -3 -67 -14 3 -5 -15 -9 -40 -9 -25 0 -47 -4
-51 -9 -3 -5 -20 -13 -38 -17 -17 -3 -45 -12 -62 -20 -16 -7 -38 -15 -48 -18
-10 -3 -15 -11 -11 -17 4 -7 9 -7 13 -2 9 14 41 24 41 13 0 -5 -8 -11 -17 -13
-14 -4 -12 -5 5 -6 16 -1 22 5 22 19 0 11 7 20 15 20 9 0 12 -6 9 -15 -5 -11
-2 -13 10 -9 9 3 16 1 16 -5 0 -6 -10 -11 -22 -11 -17 0 -19 -3 -10 -9 11 -7
11 -9 -2 -14 -9 -4 -16 -13 -16 -21 0 -10 -6 -13 -16 -9 -14 5 -13 8 6 23 l22
17 -31 0 c-16 0 -29 -3 -27 -6 2 -3 0 -15 -5 -26 -7 -18 -8 -18 -9 5 0 14 -7
34 -16 45 -11 15 -18 17 -32 9 -10 -7 -33 -15 -51 -19 -22 -5 -29 -10 -21 -15
9 -6 5 -13 -16 -25 -24 -13 -25 -15 -6 -12 12 3 22 1 22 -5 0 -6 -22 -8 -54
-5 -45 4 -58 1 -72 -14 -12 -13 -20 -16 -24 -9 -4 7 -38 -21 -83 -67 -42 -43
-72 -80 -67 -81 6 -2 -1 -13 -15 -24 -14 -11 -25 -26 -25 -34 0 -8 -5 -14 -11
-14 -8 0 -39 -58 -39 -74 0 -2 10 -2 23 1 21 4 21 4 3 -8 -55 -34 -118 -144
-114 -197 1 -16 -6 -41 -15 -55 -9 -14 -14 -32 -11 -40 3 -8 0 -18 -5 -22 -6
-3 -9 -11 -6 -16 3 -5 -1 -6 -10 -3 -13 5 -15 1 -11 -20 3 -19 0 -26 -11 -26
-32 0 13 -64 85 -121 72 -57 82 -66 82 -77 0 -5 10 -12 23 -16 12 -3 18 -9 12
-13 -16 -13 -36 -53 -26 -53 5 0 11 5 13 12 2 6 10 8 17 4 9 -6 9 -11 1 -21
-8 -10 -7 -14 2 -17 10 -4 9 -9 -4 -21 -9 -9 -19 -22 -22 -29 -4 -10 -8 -9
-18 3 -10 15 -13 13 -28 -15 -14 -25 -25 -32 -54 -34 -44 -4 -44 -27 0 -27 43
0 48 -25 9 -43 -15 -7 -25 -8 -25 -2 0 6 -4 10 -10 10 -5 0 -10 -6 -10 -14 0
-8 -6 -17 -12 -20 -10 -5 -10 -7 0 -12 17 -8 15 -24 -5 -40 -24 -18 -40 -17
-47 2 -4 10 -2 13 7 7 7 -4 5 3 -4 17 -22 34 -61 33 -69 0 -4 -15 -13 -24 -23
-24 -10 1 -21 -13 -31 -43 -14 -42 -14 -44 4 -38 10 3 21 1 25 -5 9 -14 52 -5
72 15 24 24 33 17 33 -23 0 -21 5 -43 12 -50 9 -9 6 -12 -14 -12 -15 0 -28 -5
-30 -12 -6 -18 3 -58 13 -58 16 0 9 -18 -8 -23 -12 -2 -3 -11 30 -25 26 -12
51 -21 55 -20 7 2 58 -8 93 -18 9 -3 16 -12 15 -22 0 -10 6 -17 18 -17 13 0
23 -12 32 -40 6 -22 12 -34 13 -27 1 7 6 10 12 6 6 -3 9 -14 7 -23 -3 -10 7
-21 29 -32 18 -9 33 -12 33 -8 0 5 11 2 25 -7 13 -8 32 -14 42 -12 11 2 28 -8
42 -25 15 -18 31 -27 42 -24 16 4 17 2 8 -15 -6 -10 -8 -24 -5 -31 2 -7 5 -4
5 6 1 25 20 21 31 -7 5 -13 22 -31 37 -39 60 -33 97 -47 109 -43 8 3 11 -1 8
-9 -5 -13 10 -21 56 -30 12 -2 27 -8 34 -13 6 -5 38 -19 71 -32 33 -13 65 -28
70 -35 6 -6 24 -16 40 -22 17 -6 29 -16 27 -22 -1 -7 2 -10 7 -6 6 3 24 -1 41
-10 16 -8 32 -14 34 -13 3 2 12 -6 20 -17 13 -17 26 -20 105 -20 59 0 94 4
103 13 6 6 18 12 24 12 12 0 165 67 208 91 11 7 16 7 12 0 -4 -5 -2 -13 4 -16
6 -4 9 -1 8 6 -2 6 12 18 30 25 29 13 32 13 32 -4 0 -10 5 -23 12 -30 9 -9 9
-12 -3 -12 -21 -1 -69 -39 -48 -40 9 0 22 7 29 15 14 17 40 20 40 5 0 -5 8
-10 17 -10 13 0 14 3 5 12 -16 16 -15 28 3 28 9 0 15 -10 16 -22 1 -22 2 -20
15 21 3 10 8 11 18 2 8 -6 36 -18 62 -25 27 -8 73 -21 102 -29 47 -14 53 -14
48 -1 -4 12 -1 14 14 9 12 -4 20 -2 20 5 0 6 -4 9 -9 5 -5 -3 -12 -1 -16 5 -3
5 2 10 12 10 10 0 30 6 44 14 23 12 31 10 70 -10 24 -13 51 -24 60 -24 21 0
41 -24 31 -36 -4 -5 -3 -6 2 -2 5 4 15 3 23 -4 7 -6 16 -8 19 -6 9 10 23 179
25 303 1 127 11 175 22 108 10 -60 7 -192 -4 -168 -8 18 -8 18 -6 -4 2 -24 27
-44 27 -22 0 6 14 39 31 73 16 35 44 97 61 138 36 87 44 99 51 74 20 -68 62
-377 78 -564 6 -74 17 -166 24 -205 7 -38 16 -108 20 -155 3 -47 11 -118 17
-157 l11 -73 232 0 232 0 6 83 c15 185 8 309 -27 514 -49 281 -56 354 -56 568
0 105 -5 223 -10 264 -9 71 -9 74 16 104 23 27 25 37 20 81 -4 28 -9 124 -11
213 -4 164 -26 365 -50 459 -7 28 -29 73 -49 99 -20 25 -36 50 -36 55 0 5 -45
40 -100 79 -55 39 -114 86 -130 105 -16 18 -52 43 -79 55 -28 11 -53 25 -56
31 -3 5 -37 26 -74 45 -38 20 -76 44 -84 53 -9 9 -31 34 -50 55 -19 20 -38 37
-43 37 -5 0 -8 20 -6 45 4 46 17 60 25 28 3 -10 5 -4 6 14 0 17 -4 33 -10 35
-10 3 5 53 21 68 13 13 140 283 140 298 0 5 7 24 16 41 10 20 15 47 12 69 -3
21 -2 57 2 82 l7 45 2 -37 c1 -27 6 -38 16 -38 8 0 15 5 15 10 0 6 7 10 15 10
9 0 20 11 25 24 8 22 12 23 52 16 24 -5 47 -5 51 0 5 4 9 56 9 116 0 98 2 109
22 125 52 41 95 202 75 286 -13 58 0 182 21 193 10 5 20 6 24 3 3 -3 6 -2 6 4
0 5 13 10 30 10 25 0 32 -7 50 -44 l21 -45 -21 -82 c-18 -71 -19 -92 -10 -152
6 -38 13 -94 17 -124 3 -30 11 -62 18 -70 23 -28 36 -89 35 -162 -2 -123 13
-198 40 -198 21 0 30 27 23 77 -3 28 2 50 21 86 32 59 32 79 4 120 -13 18 -24
34 -26 37 -2 2 -7 -2 -13 -10 -7 -11 -9 -4 -7 25 3 36 6 40 30 40 23 0 34 10
64 60 49 81 56 108 48 192 -5 52 -12 79 -27 95 -15 17 -19 19 -14 5 7 -20 -27
-61 -45 -55 -22 8 -34 38 -19 47 9 6 10 11 2 15 -14 9 -8 92 7 88 16 -3 15 7
-2 40 -9 17 -16 64 -17 119 -3 85 -4 92 -28 107 -34 21 -61 52 -61 68 0 7 -10
21 -23 31 -13 10 -32 32 -42 48 -29 46 -65 62 -65 30z m-725 -410 c-105 -23
-177 -71 -315 -214 -100 -103 -134 -127 -159 -112 -11 7 52 85 116 144 18 16
30 34 26 40 -3 6 -2 7 4 4 5 -3 34 9 65 27 30 19 65 37 77 41 12 3 19 10 16
15 -3 4 6 11 20 14 17 4 23 11 19 24 -5 14 -4 15 5 2 9 -12 14 -13 31 -2 11 6
28 12 37 12 12 0 14 3 6 8 -6 4 17 8 50 9 l62 2 -60 -14z m347 -529 c5 4 4 -4
-3 -17 -7 -15 -14 -19 -17 -11 -2 6 -9 12 -15 12 -6 0 -1 -10 11 -23 23 -24
31 -74 11 -61 -8 4 -9 -3 -5 -22 3 -16 2 -36 -4 -44 -8 -12 -10 -11 -10 8 0
13 -6 22 -16 22 -11 0 -15 -6 -11 -20 8 -32 -24 -21 -36 13 -4 10 -11 15 -17
12 -5 -3 -10 -1 -10 6 0 7 -11 27 -26 46 l-25 33 40 0 c28 0 48 7 61 20 11 11
27 20 35 20 8 0 15 6 16 13 0 9 2 9 6 -1 2 -6 9 -9 15 -6z m-299 -266 c9 -1
17 -6 17 -11 0 -6 8 -8 19 -4 14 4 20 0 25 -17 9 -37 8 -37 -41 -33 -118 11
-174 12 -179 3 -3 -5 -12 -7 -20 -4 -8 3 -14 2 -14 -2 0 -4 -9 -8 -20 -9 -15
-1 -20 4 -20 23 0 14 4 22 10 19 6 -3 10 1 10 10 0 9 5 13 10 10 6 -3 10 1 10
10 0 15 10 16 88 11 48 -3 95 -6 105 -6z m166 -786 c53 -169 91 -432 91 -620
0 -105 0 -106 -22 -101 -13 4 -42 9 -65 13 l-43 7 0 281 c0 154 -2 334 -3 399
-3 132 7 137 42 21z m-595 -881 c3 -21 8 -83 11 -138 6 -93 12 -173 18 -219 1
-15 -5 -20 -30 -23 l-31 -4 -6 63 c-7 78 -16 212 -19 296 -3 61 -3 62 24 62
24 0 28 -5 33 -37z m642 -222 c-4 -70 -8 -137 -10 -147 -2 -10 -7 -73 -11
-139 -4 -66 -9 -128 -11 -139 -11 -59 -14 1 -14 262 l0 292 26 0 27 0 -7 -129z
m-1777 -260 c10 -48 9 -52 -34 -138 -25 -48 -45 -94 -45 -100 0 -7 -5 -13 -11
-13 -12 0 -119 72 -119 80 1 3 35 43 76 90 42 46 83 97 92 112 20 35 28 29 41
-31z m1175 -168 c4 -65 8 -147 11 -183 2 -36 1 -104 -2 -152 -6 -87 -6 -88
-33 -88 l-27 0 -6 152 c-4 83 -7 204 -7 270 l0 118 29 0 29 0 6 -117z"/>
<path d="M3810 4689 c-19 -10 -45 -18 -57 -19 -19 0 -43 -25 -43 -44 0 -12 61
-36 90 -36 l30 0 0 -59 c0 -43 4 -60 15 -65 8 -3 15 -12 15 -21 0 -8 5 -15 11
-15 5 0 7 -5 3 -11 -3 -6 -1 -28 6 -50 13 -37 12 -39 -20 -69 -17 -16 -35 -30
-39 -30 -4 0 -20 14 -34 30 -23 25 -30 28 -45 19 -26 -16 -68 22 -77 69 -4 20
-11 45 -17 55 -9 17 -11 17 -27 3 -10 -9 -22 -16 -28 -16 -6 0 -16 -7 -23 -15
-7 -8 -20 -15 -30 -15 -10 0 -23 -7 -30 -15 -9 -11 -16 -13 -23 -6 -7 7 -6 15
3 26 7 9 10 26 6 42 -4 16 -8 56 -10 90 -1 35 -5 65 -8 68 -14 15 -97 -56 -98
-82 0 -7 -4 -13 -9 -13 -5 0 -7 -10 -4 -22 3 -13 3 -20 -2 -16 -4 4 -13 2 -20
-5 -7 -7 -25 -21 -39 -31 -14 -10 -26 -24 -26 -30 -1 -15 -52 -70 -84 -91 -14
-10 -26 -24 -26 -31 0 -8 -4 -14 -9 -14 -24 0 -28 -284 -5 -328 8 -15 14 -32
14 -37 0 -19 88 -107 102 -102 7 2 11 11 8 18 -17 51 -1 211 25 239 9 10 15
36 15 68 0 45 3 52 20 52 14 0 20 -7 20 -21 0 -11 4 -17 10 -14 7 4 10 -11 10
-42 -2 -84 1 -110 18 -159 14 -37 24 -49 45 -55 15 -4 29 -4 31 0 6 9 9 117 7
212 -2 48 2 80 9 84 6 4 8 16 4 27 -4 14 -2 18 5 14 6 -4 18 0 27 8 17 18 40
21 48 7 10 -16 9 -54 -4 -111 -6 -30 -11 -90 -11 -133 1 -73 0 -79 -29 -107
-16 -16 -30 -35 -30 -42 1 -45 82 -75 114 -43 15 15 16 29 11 90 -7 70 -6 72
21 94 15 12 35 20 43 19 22 -4 44 -72 45 -140 0 -37 5 -58 12 -58 7 0 22 -19
33 -42 32 -64 47 -81 68 -74 27 9 74 82 80 124 8 63 24 75 95 76 45 1 70 -4
88 -17 22 -15 51 -24 38 -12 -7 7 50 65 62 65 5 0 16 10 26 23 11 15 15 16 11
5 -5 -13 -1 -18 13 -18 11 0 20 -6 20 -13 0 -15 47 -40 60 -32 5 3 11 19 15
35 4 16 10 32 15 35 15 9 60 116 57 135 -4 27 -39 54 -89 69 -100 30 -104 38
-68 131 17 42 17 50 5 50 -9 0 -15 9 -15 21 0 15 -5 19 -15 15 -9 -3 -15 0
-15 9 0 16 -57 62 -71 57 -5 -1 -9 3 -9 8 0 15 -65 80 -79 80 -7 0 -26 9 -42
21 -16 11 -29 17 -29 14 0 -4 -7 0 -15 9 -8 8 -15 27 -15 43 -1 35 -38 83 -49
64 -6 -10 -10 -9 -14 3 -8 21 -52 19 -97 -5z"/>
<path d="M3353 4683 c-7 -2 -13 -10 -13 -17 0 -6 -19 -26 -42 -44 -36 -27 -50
-32 -98 -32 -49 0 -58 -3 -67 -22 -6 -14 -7 -32 -2 -46 5 -13 7 -33 4 -45 -9
-39 -13 -104 -6 -113 3 -5 13 -15 22 -21 13 -11 16 -9 16 17 0 16 8 39 18 50
13 15 14 20 5 20 -11 0 -11 3 -2 12 7 7 12 19 12 28 0 8 9 21 20 28 11 7 20
18 20 25 0 6 32 41 70 77 76 70 93 104 43 83z"/>
<path d="M2949 4594 c-17 -21 -15 -81 5 -103 20 -22 20 -26 0 -45 -8 -9 -11
-16 -5 -16 6 0 11 -11 11 -25 0 -31 -16 -33 -26 -3 -8 26 -43 57 -64 58 -9 0
-35 -20 -59 -44 -43 -44 -44 -46 -38 -95 3 -28 2 -51 -3 -51 -4 0 -6 -9 -3
-20 3 -11 2 -28 -2 -37 -5 -10 -7 -22 -6 -26 1 -5 4 -41 6 -80 8 -114 15 -154
30 -167 8 -7 15 -20 15 -30 0 -10 8 -20 18 -22 25 -7 55 -100 42 -133 -6 -15
-17 -25 -29 -25 -40 0 -62 -69 -31 -98 19 -17 19 -21 6 -59 -8 -22 -20 -50
-27 -61 -12 -19 -10 -25 23 -55 l36 -33 -5 -89 c-3 -55 1 -121 10 -170 8 -45
15 -116 16 -160 2 -75 22 -145 42 -145 4 0 19 11 33 25 13 13 37 27 53 30 55
12 58 17 58 101 1 140 17 338 30 359 7 11 15 34 18 50 3 17 8 40 12 52 5 16 2
23 -13 27 -11 4 -30 28 -42 54 -21 43 -21 47 -5 57 64 38 82 68 46 80 -41 13
-69 43 -64 70 3 14 9 25 14 25 15 0 10 23 -12 65 -11 22 -20 54 -20 70 -1 51
10 175 15 184 3 5 0 25 -7 45 -9 26 -10 62 -5 119 7 82 3 127 -12 127 -4 0
-11 -11 -14 -25 -10 -39 -26 -29 -26 15 0 33 4 40 19 40 22 0 34 35 21 60 -5
10 -7 20 -5 22 3 3 -1 23 -9 46 -8 22 -12 43 -9 46 4 3 -1 6 -9 6 -9 0 -21 -7
-29 -16z"/>
<path d="M4680 4315 c-7 -8 -18 -15 -24 -14 -6 1 -16 1 -22 0 -15 -1 -54 -36
-54 -48 0 -14 -47 -63 -60 -63 -5 0 -10 -20 -10 -44 0 -36 4 -46 20 -51 24 -8
90 4 90 16 0 5 11 9 24 9 26 0 38 13 43 44 2 10 10 30 17 45 24 43 45 108 39
115 -12 12 -51 6 -63 -9z"/>
<path d="M1959 3913 c0 -5 -3 -26 -5 -48 -7 -77 -16 -125 -25 -131 -27 -16 0
-24 79 -21 78 2 89 0 109 -20 11 -11 24 -32 28 -45 4 -12 14 -31 22 -40 18
-21 44 -11 68 26 18 27 8 66 -27 103 -16 17 -19 29 -14 56 5 29 3 37 -18 51
-14 9 -36 16 -48 16 -13 0 -30 9 -37 19 -8 11 -20 17 -27 14 -7 -3 -28 2 -45
11 -34 17 -58 21 -60 9z"/>
<path d="M4577 3852 c-29 -32 -19 -197 14 -218 16 -10 46 24 53 61 4 18 13 38
21 45 8 7 15 21 15 30 0 10 5 20 10 22 7 2 7 14 -1 36 -9 26 -16 32 -39 32
-16 0 -35 2 -42 5 -8 3 -22 -3 -31 -13z"/>
<path d="M4325 3811 c-6 -5 -35 -11 -65 -15 -30 -3 -55 -6 -56 -6 0 0 2 -20 6
-45 4 -28 15 -51 30 -63 12 -10 30 -38 39 -62 20 -53 37 -61 52 -23 5 15 22
40 36 55 30 31 33 75 9 133 -15 34 -33 44 -51 26z"/>
<path d="M786 3768 c-11 -6 -44 -8 -78 -5 -80 7 -111 -5 -133 -52 -22 -50 -17
-85 13 -89 14 -2 22 2 22 11 0 21 25 31 111 43 42 6 48 4 68 -22 17 -21 30
-28 56 -27 19 1 35 -3 35 -8 0 -5 -5 -9 -12 -9 -9 0 -9 -3 -1 -11 8 -8 8 -20
3 -35 -5 -13 -6 -24 -3 -24 4 0 2 -5 -5 -12 -33 -33 11 -76 67 -64 17 3 45 9
61 12 23 5 30 12 30 29 0 34 -27 80 -55 93 -13 6 -27 23 -31 37 -6 23 -17 29
-52 28 -8 -1 -12 11 -10 31 2 38 -19 79 -37 73 -7 -3 -16 -2 -21 3 -5 5 -17 4
-28 -2z"/>
<path d="M3525 3693 c-38 -13 -95 -58 -95 -75 0 -4 16 -23 35 -42 37 -37 38
-40 35 -126 -2 -60 -20 -90 -54 -90 -18 0 -24 -10 -34 -55 -14 -59 -9 -95 13
-95 20 0 23 -21 9 -64 -19 -52 -18 -60 16 -235 16 -84 27 -157 24 -162 -10
-18 17 -76 40 -87 20 -9 27 -7 42 9 68 75 113 447 79 645 l-17 99 26 78 c15
45 26 100 26 131 0 46 -4 56 -25 70 -29 19 -66 19 -120 -1z"/>
<path d="M6960 3424 c0 -12 -7 -14 -32 -10 l-33 6 30 -14 c18 -8 32 -10 36 -5
7 12 37 1 61 -23 11 -11 32 -18 54 -18 19 0 45 -5 56 -11 17 -9 24 -8 33 5 16
21 23 20 21 -1 -1 -15 8 -19 47 -21 35 -2 47 0 42 8 -10 17 37 2 51 -16 6 -7
31 -18 57 -23 25 -6 69 -20 98 -32 29 -11 76 -21 103 -21 31 0 71 -10 102 -24
60 -28 147 -47 152 -33 2 5 14 9 27 9 27 0 42 16 23 23 -8 4 -4 8 10 12 12 4
22 13 22 21 0 16 -39 44 -62 44 -21 0 -24 -16 -5 -23 6 -2 9 -8 5 -12 -4 -4
-14 0 -23 9 -21 21 -21 21 -55 -14 -33 -34 -40 -36 -40 -15 0 8 -9 15 -20 15
-11 0 -20 -7 -20 -15 0 -8 -4 -15 -10 -15 -5 0 -10 10 -10 21 0 21 -3 21 -69
15 -77 -8 -121 -1 -121 20 0 18 9 18 53 -1 44 -18 57 -19 57 -3 0 6 7 19 15
28 19 21 2 32 -30 19 -17 -6 -17 -8 -2 -8 9 -1 17 -6 17 -12 0 -8 -11 -9 -31
-5 -17 3 -35 6 -40 6 -5 0 -9 7 -9 15 0 8 8 15 17 15 42 0 -9 20 -92 35 -112
21 -385 53 -420 50 -13 -2 -27 1 -31 6 -9 15 -34 10 -34 -7z"/>
<path d="M7975 3280 c-3 -5 1 -10 9 -10 9 0 16 -3 16 -6 0 -14 -31 -34 -52
-34 -21 -1 -22 -2 -5 -14 10 -8 16 -19 15 -26 -2 -6 8 -20 22 -30 21 -16 34
-18 85 -11 46 7 55 10 38 16 -30 10 -29 38 2 55 44 24 41 25 -107 66 -9 3 -19
0 -23 -6z"/>
<path d="M695 3239 c-11 -4 -39 -8 -62 -8 -23 -1 -45 -5 -48 -11 -3 -5 -32
-10 -63 -10 -51 -1 -177 -22 -187 -32 -10 -10 15 -30 39 -31 14 -1 26 -7 26
-13 0 -18 31 -26 46 -13 22 18 17 29 -13 30 -27 0 -26 1 7 12 24 9 37 9 43 2
5 -6 12 -4 21 8 8 11 31 20 54 22 22 2 50 9 61 15 14 7 21 7 21 0 0 -16 66
-12 110 7 48 21 51 33 10 33 -17 0 -30 -5 -30 -12 0 -9 -2 -10 -8 -2 -4 7 -15
8 -27 3z"/>
<path d="M8340 3221 c0 -10 21 -18 70 -23 14 -2 25 -9 25 -16 0 -7 6 -16 13
-21 7 -4 10 -15 6 -25 -5 -13 -14 -17 -35 -12 -19 3 -35 -1 -53 -15 -22 -17
-31 -19 -63 -10 -46 13 -63 14 -63 3 0 -11 83 -32 128 -32 25 0 43 7 54 19 19
23 58 17 58 -8 0 -19 53 -51 85 -51 13 0 36 -5 50 -10 20 -8 26 -7 23 2 -3 7
-21 17 -41 21 -20 5 -37 13 -37 18 0 5 -9 9 -19 9 -21 0 -31 19 -31 56 0 15 6
24 15 24 9 0 26 7 39 16 16 10 26 12 31 5 3 -6 32 -11 63 -10 l57 1 -75 18
c-51 13 -76 16 -81 8 -4 -7 -8 -6 -11 3 -2 7 -29 16 -59 20 -30 4 -75 11 -101
15 -33 4 -48 3 -48 -5z"/>
<path d="M3183 1174 c-4 -10 -2 -19 5 -22 7 -2 12 -10 12 -17 0 -8 15 -17 38
-20 20 -4 43 -8 50 -10 14 -5 16 -35 2 -35 -5 0 -10 -5 -10 -11 0 -8 5 -7 16
1 12 11 18 10 32 -3 15 -16 15 -18 0 -34 -16 -15 -19 -15 -43 1 -14 9 -29 24
-32 32 -7 20 -43 18 -59 -3 -12 -17 -13 -17 -19 0 -4 9 -17 17 -30 17 -17 0
-25 7 -28 23 -3 15 -5 11 -6 -13 -1 -19 -6 -44 -11 -55 -8 -19 -9 -19 -9 -1
-1 11 -4 16 -8 13 -3 -4 2 -25 12 -48 21 -46 95 -107 190 -156 33 -17 98 -57
145 -88 46 -31 138 -88 203 -127 94 -55 117 -73 112 -86 -4 -9 -8 -27 -10 -40
-3 -24 -15 -43 -15 -23 0 7 -4 9 -10 6 -16 -10 -11 -68 8 -98 10 -15 21 -24
25 -21 3 4 1 -7 -5 -23 -10 -26 -8 -35 10 -64 11 -19 25 -67 31 -108 5 -40 15
-79 20 -84 16 -16 13 -38 -6 -59 -16 -17 13 -18 903 -18 515 0 924 4 930 9 5
5 25 14 44 20 51 16 105 64 129 114 38 78 24 185 -30 233 -115 103 -299 -12
-299 -186 0 -57 10 -81 49 -124 l26 -29 -33 19 c-46 26 -72 86 -72 164 0 38
-4 59 -10 55 -15 -9 -12 -116 4 -148 16 -29 15 -32 -12 -18 -9 5 -30 14 -46
20 -16 7 -26 15 -22 18 3 4 12 1 18 -5 7 -7 19 -12 27 -12 11 0 9 5 -7 20 -57
53 -48 166 21 268 26 39 27 43 8 33 -14 -8 -27 -9 -39 -2 -13 7 -23 4 -41 -12
l-24 -22 23 32 c13 18 19 36 15 44 -6 8 -4 10 5 4 15 -9 6 9 -18 38 -14 15
-13 17 4 18 10 1 24 1 30 0 7 -1 14 5 17 13 4 10 1 13 -7 10 -10 -4 -13 5 -13
33 1 43 -4 44 -82 22 -34 -9 -48 -9 -63 0 -22 14 -97 6 -137 -15 -14 -8 -42
-14 -61 -14 l-35 -1 25 -14 c15 -9 54 -14 98 -15 91 0 117 -11 99 -43 -20 -36
-38 -44 -84 -39 -28 3 -43 1 -43 -7 0 -6 -12 -11 -26 -11 -14 0 -23 4 -20 9 3
5 -10 5 -32 -1 -20 -5 -44 -9 -52 -10 -8 0 -39 -9 -68 -19 -30 -11 -64 -16
-77 -13 -42 10 -51 -7 -14 -27 59 -31 134 -21 134 18 0 20 4 20 125 8 41 -4
83 -12 92 -17 17 -8 15 -18 -10 -58 -2 -2 -45 -5 -95 -6 -92 -1 -142 -15 -134
-37 2 -7 21 -12 43 -13 67 -1 125 -15 131 -31 9 -24 -18 -34 -71 -27 -34 4
-47 3 -42 -5 4 -6 2 -11 -3 -11 -6 0 -11 6 -11 13 0 9 -2 9 -8 -1 -6 -9 -29
-11 -75 -9 -53 3 -67 1 -67 -10 0 -11 -9 -9 -37 8 -30 19 -35 20 -30 6 6 -17
-24 -43 -36 -30 -9 8 -55 15 -94 15 -19 0 -34 5 -37 14 -3 9 -10 12 -16 9 -5
-3 -10 -1 -10 6 0 13 -38 49 -52 49 -18 0 -57 37 -50 46 5 5 14 26 21 47 15
45 3 69 -23 48 -9 -7 -38 -14 -67 -16 -43 -3 -52 -1 -56 15 -3 10 -11 21 -19
24 -8 3 -14 14 -14 25 0 20 -47 36 -53 18 -1 -5 -24 6 -51 27 -26 20 -56 36
-66 36 -10 0 -21 6 -23 13 -4 9 -8 8 -16 -3 -10 -13 -13 -13 -24 1 -6 9 -25
24 -42 33 -16 9 -43 25 -60 35 -16 10 -38 16 -48 13 -21 -5 -57 24 -57 47 0
12 -2 13 -9 3 -6 -10 -10 -10 -21 3 -7 8 -20 15 -29 15 -18 0 -71 52 -71 69 0
6 -7 11 -16 11 -22 0 -114 98 -114 121 0 12 7 19 20 19 11 0 20 -4 20 -10 0
-5 -7 -10 -15 -10 -8 0 -15 -4 -15 -10 0 -15 32 -12 54 5 19 15 19 15 1 28
-10 8 -15 19 -11 25 4 7 0 12 -10 12 -16 0 -16 2 1 20 10 11 16 22 14 24 -11
9 -99 14 -104 6 -9 -15 -25 -12 -25 5 0 8 8 15 18 16 14 0 14 2 -3 8 -11 5
-24 6 -28 4 -4 -3 -15 1 -24 8 -8 7 -25 13 -37 14 -14 0 -20 6 -18 16 1 9 -5
19 -13 23 -9 3 -13 11 -10 16 4 7 -2 9 -19 4 -26 -6 -38 10 -13 19 6 2 8 8 4
13 -4 5 -12 2 -17 -5 -8 -14 -16 -13 -132 5 -31 5 -39 3 -45 -12z"/>
</g>
</svg>
